<svg xmlns="http://www.w3.org/2000/svg" xmlns:xlink="http://www.w3.org/1999/xlink" width="500" zoomAndPan="magnify" viewBox="0 0 375 374.999991" height="500" preserveAspectRatio="xMidYMid meet" version="1.0"><defs><clipPath id="d4bb071841"><path d="M 10.28125 82.054688 L 365 82.054688 L 365 292.804688 L 10.28125 292.804688 Z M 10.28125 82.054688 " clip-rule="nonzero"/></clipPath></defs><g clip-path="url(#d4bb071841)"><path fill="#fbbe04" d="M 114.757812 202.195312 L 95.253906 237.777344 L 10.28125 84.253906 L 49.488281 84.253906 Z M 363.96875 158.234375 C 357.769531 136.765625 344.523438 117.425781 326.65625 103.796875 C 308.203125 89.714844 286.144531 82.265625 262.871094 82.265625 C 254.574219 82.265625 246.363281 83.242188 238.40625 85.144531 C 221.90625 89.078125 206.5 96.980469 193.558594 108.3125 C 183.234375 117.359375 174.859375 128.246094 168.804688 140.308594 L 168.707031 140.21875 L 124.589844 219.9375 L 104.992188 255.347656 L 124.582031 290.75 L 124.589844 290.769531 L 144.199219 255.347656 L 163.132812 221.144531 L 196.222656 161.367188 L 205.210938 145.125 C 218.390625 127.261719 239.59375 115.914062 262.878906 115.914062 C 291.632812 115.914062 317.503906 133.035156 328.785156 159.546875 L 329.296875 160.753906 L 364.714844 160.753906 Z M 327.917969 217.441406 L 327.375 218.5625 C 321.601562 230.523438 312.617188 240.636719 301.414062 247.828125 C 289.90625 255.203125 276.585938 259.105469 262.878906 259.105469 C 233.832031 259.105469 207.941406 241.316406 196.914062 215.292969 L 177.9375 249.636719 C 182.535156 255.910156 187.832031 261.710938 193.785156 266.898438 C 212.921875 283.574219 237.460938 292.753906 262.878906 292.753906 C 285.554688 292.753906 307.148438 285.660156 325.335938 272.222656 C 343.167969 259.050781 356.1875 241.007812 362.996094 220.035156 L 363.839844 217.433594 L 327.917969 217.433594 Z M 327.917969 217.441406 " fill-opacity="1" fill-rule="nonzero"/></g></svg>